<?xml version="1.0" encoding="UTF-8"?>
<svg id="Layer_1" xmlns="http://www.w3.org/2000/svg" xmlns:xlink="http://www.w3.org/1999/xlink" version="1.1" viewBox="0 0 109 141">
  <!-- Generator: Adobe Illustrator 29.8.1, SVG Export Plug-In . SVG Version: 2.1.1 Build 2)  -->
  <defs>
    <style>
      .st0 {
        fill: none;
      }

      .st1 {
        fill: #3705ab;
      }

      .st2 {
        clip-path: url(#clippath);
      }
    </style>
    <clipPath id="clippath">
      <rect class="st0" y="0" width="108.8" height="140.6"/>
    </clipPath>
  </defs>
  <g class="st2">
    <g>
      <path class="st1" d="M85.5,24c6.5,0,11.9-5.4,11.9-12.1S92,0,85.5,0s-12.1,5.4-12.1,11.9c0,3.2,1.3,6.3,3.5,8.5,2.3,2.3,5.3,3.5,8.5,3.5Z"/>
      <path class="st1" d="M54.4,32.2C24.4,32.2,0,56.3,0,86.5s24.4,54.2,54.4,54.2,54.5-24.2,54.5-54.2-24.4-54.3-54.5-54.3ZM54.4,118c-16.7,0-30.4-14.8-30.4-31.5s13.7-31.6,30.4-31.6,30.5,14.8,30.5,31.6-13.7,31.5-30.5,31.5Z"/>
      <path class="st1" d="M23.2,24c6.5,0,11.9-5.4,11.9-12.1S29.7,0,23.2,0s-12.1,5.4-12.1,11.9c0,3.2,1.3,6.3,3.5,8.5,2.3,2.3,5.3,3.5,8.5,3.5Z"/>
      <path class="st1" d="M54.4,24c6.5,0,11.9-5.4,11.9-12.1S60.9,0,54.4,0s-12.1,5.4-12.1,11.9c0,3.2,1.3,6.3,3.5,8.5,2.3,2.3,5.3,3.5,8.5,3.5Z"/>
    </g>
  </g>
</svg>