<svg width="109" height="141" viewBox="0 0 109 141" fill="none" xmlns="http://www.w3.org/2000/svg">
<g clip-path="url(#clip0_8314_56648)">
<path d="M85.5327 24.0266C92.0391 24.0266 97.4611 18.5968 97.4611 11.9454C97.4611 5.42973 92.0391 0 85.5327 0C78.8908 0 73.4688 5.42973 73.4688 11.9454C73.4759 15.1473 74.7492 18.216 77.0101 20.4801C79.271 22.7442 82.3353 24.0194 85.5327 24.0266Z" fill="black"/>
<path d="M54.3556 32.1709C24.399 32.1709 0 56.3332 0 86.4682C0 116.467 24.399 140.63 54.3556 140.63C84.4477 140.63 108.847 116.467 108.847 86.4682C108.847 56.3332 84.4477 32.1709 54.3556 32.1709ZM54.3556 117.961C37.6829 117.961 23.9924 103.165 23.9924 86.4682C23.9924 69.636 37.6829 54.84 54.3556 54.84C71.1638 54.84 84.8544 69.636 84.8544 86.4682C84.8544 103.165 71.1638 117.961 54.3556 117.961Z" fill="black"/>
<path d="M23.1811 24.0266C29.6876 24.0266 35.1096 18.5968 35.1096 11.9454C35.1096 5.42973 29.6876 0 23.1811 0C16.5392 0 11.1172 5.42973 11.1172 11.9454C11.1243 15.1473 12.3977 18.216 14.6585 20.4801C16.9194 22.7442 19.9838 24.0194 23.1811 24.0266Z" fill="black"/>
<path d="M54.3569 24.0266C60.8633 24.0266 66.2853 18.5968 66.2853 11.9454C66.2853 5.42973 60.8633 0 54.3569 0C47.715 0 42.293 5.42973 42.293 11.9454C42.3001 15.1473 43.5735 18.216 45.8343 20.4801C48.0952 22.7442 51.1596 24.0194 54.3569 24.0266Z" fill="black"/>
</g>
<defs>
<clipPath id="clip0_8314_56648">
<rect width="108.847" height="140.63" fill="white"/>
</clipPath>
</defs>
</svg>
