<svg width="338" height="120" viewBox="0 0 338 120" fill="none" xmlns="http://www.w3.org/2000/svg">
<g clip-path="url(#clip0_8314_56621)">
<path d="M46.304 27.4521C20.7849 27.4521 0 48.0699 0 73.7842C0 99.3827 20.7849 120 46.304 120C71.9387 120 92.7235 99.3827 92.7235 73.7842C92.7235 48.0699 71.9387 27.4521 46.304 27.4521ZM46.304 100.657C32.101 100.657 20.4384 88.0313 20.4384 73.7842C20.4384 59.4213 32.101 46.7958 46.304 46.7958C60.6225 46.7958 72.2851 59.4213 72.2851 73.7842C72.2851 88.0313 60.6225 100.657 46.304 100.657Z" fill="black"/>
<path d="M19.7457 20.5019C25.2883 20.5019 29.9072 15.8687 29.9072 10.1931C29.9072 4.6332 25.2883 0 19.7457 0C14.0876 0 9.46875 4.6332 9.46875 10.1931C9.46875 15.8687 14.0876 20.5019 19.7457 20.5019Z" fill="black"/>
<path d="M72.8629 20.5019C78.4055 20.5019 83.0244 15.8687 83.0244 10.1931C83.0244 4.6332 78.4055 0 72.8629 0C67.2048 0 62.5859 4.6332 62.5859 10.1931C62.5859 15.8687 67.2048 20.5019 72.8629 20.5019Z" fill="black"/>
<path d="M46.3043 20.5019C51.8469 20.5019 56.4658 15.8687 56.4658 10.1931C56.4658 4.6332 51.8469 0 46.3043 0C40.6462 0 36.0273 4.6332 36.0273 10.1931C36.0273 15.8687 40.6462 20.5019 46.3043 20.5019Z" fill="black"/>
<path d="M250.918 29.0734H228.401L201.727 66.2549V1.50586H181.289V118.378H201.727V81.197L230.48 118.378H254.613L219.164 73.2047L250.918 29.0734Z" fill="black"/>
<path d="M171.703 29.0734H149.187L122.513 66.2549V1.50586H102.074V118.378H122.513V81.197L151.265 118.378H175.399L139.949 73.2047L171.703 29.0734Z" fill="black"/>
<path d="M290.988 27.4521C265.468 27.4521 244.684 48.0699 244.684 73.7842C244.684 99.3827 265.468 120 290.988 120C316.622 120 337.407 99.3827 337.407 73.7842C337.407 48.0699 316.622 27.4521 290.988 27.4521ZM290.872 100.657C276.669 100.657 265.007 88.0313 265.007 73.7842C265.007 59.4213 276.669 46.7958 290.872 46.7958C305.191 46.7958 316.853 59.4213 316.853 73.7842C316.853 88.0313 305.191 100.657 290.872 100.657Z" fill="black"/>
</g>
<defs>
<clipPath id="clip0_8314_56621">
<rect width="337.407" height="120" fill="white"/>
</clipPath>
</defs>
</svg>
