<?xml version="1.0" encoding="UTF-8"?>
<svg id="Layer_1" xmlns="http://www.w3.org/2000/svg" xmlns:xlink="http://www.w3.org/1999/xlink" version="1.1" viewBox="0 0 338 120">
  <!-- Generator: Adobe Illustrator 29.8.1, SVG Export Plug-In . SVG Version: 2.1.1 Build 2)  -->
  <defs>
    <style>
      .st0 {
        fill: none;
      }

      .st1 {
        fill: #3705ab;
      }

      .st2 {
        clip-path: url(#clippath);
      }
    </style>
    <clipPath id="clippath">
      <rect class="st0" y="0" width="337.4" height="120"/>
    </clipPath>
  </defs>
  <g class="st2">
    <g>
      <path class="st1" d="M46.3,27.5C20.8,27.5,0,48.1,0,73.8s20.8,46.2,46.3,46.2,46.4-20.6,46.4-46.2-20.8-46.3-46.4-46.3ZM46.3,100.7c-14.2,0-25.9-12.6-25.9-26.9s11.7-27,25.9-27,26,12.6,26,27-11.7,26.9-26,26.9Z"/>
      <path class="st1" d="M19.7,20.5c5.5,0,10.2-4.6,10.2-10.3S25.3,0,19.7,0s-10.3,4.6-10.3,10.2,4.6,10.3,10.3,10.3Z"/>
      <path class="st1" d="M72.9,20.5c5.5,0,10.2-4.6,10.2-10.3S78.4,0,72.9,0s-10.3,4.6-10.3,10.2,4.6,10.3,10.3,10.3Z"/>
      <path class="st1" d="M46.3,20.5c5.5,0,10.2-4.6,10.2-10.3S51.8,0,46.3,0s-10.3,4.6-10.3,10.2,4.6,10.3,10.3,10.3Z"/>
      <path class="st1" d="M250.9,29.1h-22.5l-26.7,37.2V1.5h-20.4v116.9h20.4v-37.2l28.8,37.2h24.1l-35.4-45.2,31.8-44.1Z"/>
      <path class="st1" d="M171.7,29.1h-22.5l-26.7,37.2V1.5h-20.4v116.9h20.4v-37.2l28.8,37.2h24.1l-35.4-45.2,31.8-44.1Z"/>
      <path class="st1" d="M291,27.5c-25.5,0-46.3,20.6-46.3,46.3s20.8,46.2,46.3,46.2,46.4-20.6,46.4-46.2-20.8-46.3-46.4-46.3ZM290.9,100.7c-14.2,0-25.9-12.6-25.9-26.9s11.7-27,25.9-27,26,12.6,26,27-11.7,26.9-26,26.9Z"/>
    </g>
  </g>
</svg>